<svg width="17" height="25" viewBox="0 0 17 25" fill="none" xmlns="http://www.w3.org/2000/svg">
<path d="M8.46004 17.382C13.0932 17.382 16.849 13.6261 16.849 8.993C16.849 4.35989 13.0932 0.604004 8.46004 0.604004C3.82693 0.604004 0.0710449 4.35989 0.0710449 8.993C0.0710449 13.6261 3.82693 17.382 8.46004 17.382Z" fill="black"/>
<path d="M8.46002 12.084C10.1671 12.084 11.551 10.7001 11.551 8.99301C11.551 7.2859 10.1671 5.90201 8.46002 5.90201C6.75291 5.90201 5.36902 7.2859 5.36902 8.99301C5.36902 10.7001 6.75291 12.084 8.46002 12.084Z" fill="#CDCDCD"/>
<path d="M2.14404 14.476L8.3291 24.46L14.8671 14.299L2.14404 14.476Z" fill="black"/>
</svg>
