<svg width="31" height="43" viewBox="0 0 31 43" fill="none" xmlns="http://www.w3.org/2000/svg">
<path d="M15.571 30.142C23.8945 30.142 30.642 23.3945 30.642 15.071C30.642 6.74752 23.8945 0 15.571 0C7.24752 0 0.5 6.74752 0.5 15.071C0.5 23.3945 7.24752 30.142 15.571 30.142Z" fill="#D5D5D5"/>
<path d="M15.572 20.625C18.6389 20.625 21.125 18.1389 21.125 15.072C21.125 12.0052 18.6389 9.51904 15.572 9.51904C12.5052 9.51904 10.019 12.0052 10.019 15.072C10.019 18.1389 12.5052 20.625 15.572 20.625Z" fill="#1A1D20"/>
<path d="M4.22693 24.9281L15.339 42.8661L27.0859 24.6111L4.22693 24.9281Z" fill="#D5D5D5"/>
</svg>
